<svg width="256" height="256" viewBox="0 0 256 256" fill="none" xmlns="http://www.w3.org/2000/svg">
<path d="M162.061 158.342C163.658 165.906 167.706 169.688 174.208 169.688C179.759 169.688 184.507 166.474 188.451 160.046C188.794 159.487 189.129 158.919 189.456 158.342H242.985C242.436 159.653 241.863 160.952 241.264 162.237C234.105 177.431 224.171 189.41 211.461 198.176C198.897 206.795 184.726 211.105 168.948 211.105C156.969 211.105 146.524 208.767 137.612 204.093C128.701 199.272 121.761 192.405 116.794 183.494C112.931 176.236 110.617 167.851 109.85 158.342H162.061ZM55.2236 207.599H3.50684L13.3203 158.342H65.0742L55.2236 207.599ZM66.1807 152.812H14.4229L15.624 146.781H67.3867L66.1807 152.812ZM161.326 146.781C161.295 147.781 161.278 148.769 161.278 149.747C161.278 150.811 161.31 151.833 161.365 152.812H109.58C109.57 152.233 109.562 151.649 109.562 151.061C109.563 149.624 109.586 148.197 109.627 146.781H161.326ZM247.083 146.781C246.485 148.819 245.833 150.83 245.127 152.812H192.229C193.079 150.888 193.858 148.878 194.566 146.781H247.083ZM68.4922 141.253H16.7256L18.2783 133.462H70.0508L68.4922 141.253ZM162.578 133.462C162.176 136.123 161.868 138.721 161.652 141.253H109.895C110.075 138.616 110.33 136.02 110.658 133.462H162.578ZM250.146 133.462C249.697 136.1 249.168 138.698 248.556 141.253H196.218C196.577 139.88 196.91 138.475 197.217 137.037C197.489 135.833 197.742 134.64 197.978 133.462H250.146ZM71.1562 127.932H19.3799L26.2979 93.2098H0.000976562L7.88965 54.203H85.9023L71.1562 127.932ZM192.615 50.6971C204.594 50.6972 215.04 53.1077 223.951 57.9286C232.863 62.6035 239.73 69.4696 244.551 78.5272C249.518 87.4387 252.001 98.1765 252.001 110.74C252.001 116.648 251.654 122.378 250.961 127.932H198.965C199.843 122.326 200.285 117.034 200.285 112.056C200.285 98.7613 195.975 92.1141 187.355 92.1141C181.804 92.1143 177.057 95.3281 173.112 101.756C169.168 108.184 166.172 115.927 164.127 124.984C163.916 125.975 163.719 126.958 163.531 127.932H111.495C113.243 117.92 116.176 108.536 120.3 99.7841C127.458 84.4445 137.32 72.4649 149.884 63.8456C162.594 55.0802 176.837 50.6971 192.615 50.6971Z" fill="#FE3300"/>
</svg>
