<svg width="403" height="75" viewBox="0 0 403 75" fill="none" xmlns="http://www.w3.org/2000/svg">
<path d="M297.266 36.8184C296.992 40.6503 295.963 44.1787 294.172 47.4033C292.111 51.2083 289.31 54.1946 285.77 56.3613C282.229 58.528 278.397 59.6113 274.275 59.6113C268.462 59.6113 264.34 57.8142 261.909 54.2207L257.866 74.1963H239.951L247.417 36.8184H265.022C264.956 37.4119 264.921 38.0335 264.921 38.6836C264.921 40.7446 265.476 42.4094 266.586 43.6777C267.748 44.8931 269.334 45.5009 271.342 45.501C273.667 45.501 275.544 44.6025 276.971 42.8057C278.244 41.2598 278.968 39.2639 279.146 36.8184H297.266ZM89.3789 36.8184C88.8123 38.7509 88.1118 40.6148 87.2744 42.4092C84.6849 47.9052 81.0908 52.2393 76.4932 55.4102C71.9485 58.5279 66.8225 60.0869 61.1152 60.0869C56.7818 60.0869 53.003 59.2409 49.7793 57.5498C46.5558 55.8059 44.0458 53.3222 42.249 50.0986C40.5051 46.8221 39.6328 42.911 39.6328 38.3662C39.6328 37.8463 39.6414 37.3304 39.6562 36.8184H58.3574C58.3461 37.1797 58.3408 37.5371 58.3408 37.8906C58.3408 42.6996 59.8997 45.1044 63.0176 45.1045C65.0256 45.1045 66.7431 43.9421 68.1699 41.6172C69.0472 40.1876 69.7842 38.5875 70.3818 36.8184H89.3789ZM150.642 41.2207C150.536 41.9604 150.483 42.4624 150.483 42.7266C150.483 44.946 151.646 46.0556 153.971 46.0557C155.186 46.0557 156.217 45.8446 157.062 45.4219L155.16 58.501C152.518 59.2408 149.876 59.6113 147.233 59.6113C143.64 59.6113 140.706 58.9501 138.434 57.6289C136.162 56.255 134.602 54.3 133.757 51.7637C130.005 56.9953 125.222 59.6113 119.409 59.6113C116.45 59.6113 113.596 58.8188 110.848 57.2334C108.1 55.6481 105.854 53.3489 104.11 50.3369C102.419 47.2718 101.573 43.6777 101.573 39.5557C101.573 38.6263 101.616 37.714 101.698 36.8184H119.828C119.762 37.4119 119.727 38.0335 119.727 38.6836C119.727 40.7445 120.281 42.4094 121.391 43.6777C122.553 44.8932 124.139 45.501 126.147 45.501C128.473 45.5009 130.349 44.6024 131.775 42.8057C133.048 41.2598 133.772 39.2639 133.95 36.8184H151.522L150.642 41.2207ZM221.742 39.1592C224.649 39.1592 227 40.0315 228.797 41.7754C230.594 43.5193 231.492 45.7919 231.492 48.5928C231.492 51.8691 230.409 54.5377 228.242 56.5986C226.076 58.6067 223.433 59.6113 220.315 59.6113C217.409 59.6113 215.03 58.7391 213.181 56.9951C211.384 55.1983 210.485 52.9257 210.485 50.1777C210.485 46.9014 211.569 44.2591 213.735 42.251C215.902 40.19 218.571 39.1592 221.742 39.1592ZM402.56 36.8184C402.262 40.6967 401.13 44.2517 399.155 47.4824C396.83 51.2345 393.605 54.1946 389.483 56.3613C385.414 58.5279 380.79 59.6113 375.611 59.6113C370.855 59.6113 366.707 58.7915 363.166 57.1533C359.625 55.4622 356.877 53.1108 354.922 50.0986C353.019 47.0864 352.068 43.572 352.068 39.5557C352.068 38.6245 352.116 37.7122 352.207 36.8184H370.323C370.257 37.4119 370.222 38.0335 370.222 38.6836C370.222 40.7446 370.776 42.4094 371.886 43.6777C373.048 44.8931 374.634 45.5009 376.642 45.501C378.967 45.501 380.844 44.6025 382.271 42.8057C383.544 41.2598 384.268 39.2639 384.445 36.8184H402.56ZM19.9766 58.8184H1.26855L5.65137 36.8184H24.377L19.9766 58.8184ZM190.222 36.8184C190.017 37.4219 189.84 38.0696 189.694 38.7627L185.651 58.8184H167.736L172.12 36.8184H190.222ZM328.96 36.8184C328.755 37.4219 328.579 38.0696 328.433 38.7627L324.39 58.8184H306.475L310.858 36.8184H328.96ZM24.7764 34.8184H6.0498L9.5127 17.4395H0L2.85449 3.3291H31.0742L24.7764 34.8184ZM69.6768 2.06055C74.0099 2.0606 77.7882 2.93296 81.0117 4.67676C84.2354 6.36785 86.7199 8.85144 88.4639 12.1279C90.2607 15.3516 91.1582 19.2364 91.1582 23.7812C91.1582 27.6722 90.7428 31.3512 89.9121 34.8184H70.9785C71.1086 34.3216 71.23 33.8131 71.3408 33.293C72.0806 30.0167 72.4511 27.0047 72.4512 24.2568C72.4512 19.4478 70.8914 17.043 67.7734 17.043C65.7655 17.0431 64.0479 18.2062 62.6211 20.5312C61.1943 22.8564 60.1109 25.6573 59.3711 28.9336C58.9324 30.9921 58.6341 32.9538 58.4756 34.8184H39.7529C40.1272 29.3507 41.3819 24.3504 43.5176 19.8174C46.107 14.2686 49.674 9.93531 54.2188 6.81738C58.8164 3.64658 63.9693 2.06055 69.6768 2.06055ZM151.922 34.8184H133.966C133.836 33.1171 133.264 31.7369 132.251 30.6777C131.141 29.4095 129.582 28.7754 127.574 28.7754C125.249 28.7754 123.346 29.673 121.866 31.4697C121.114 32.4168 120.563 33.5336 120.207 34.8184H101.956C102.425 31.9917 103.327 29.3424 104.665 26.8721C106.779 23.0674 109.606 20.0817 113.146 17.915C116.687 15.7484 120.519 14.6651 124.641 14.665C130.718 14.665 134.946 16.5935 137.324 20.4512L140.971 0H158.886L151.922 34.8184ZM204.438 30.5186C203.117 30.3072 201.822 30.2021 200.554 30.2021C197.489 30.2022 195.057 30.8887 193.261 32.2627C192.405 32.9108 191.685 33.7634 191.097 34.8184H172.519L176.377 15.458H193.261L192.389 19.8965C195.929 16.4086 201.004 14.665 207.609 14.665L204.438 30.5186ZM279.507 14.665C282.466 14.665 285.32 15.4576 288.068 17.043C290.816 18.6283 293.036 20.9536 294.727 24.0186C296.471 27.0308 297.343 30.5987 297.343 34.7207C297.343 34.7533 297.342 34.7858 297.342 34.8184H279.161C279.031 33.1172 278.459 31.7369 277.446 30.6777C276.337 29.4094 274.777 28.7754 272.769 28.7754C270.444 28.7755 268.541 29.6732 267.062 31.4697C266.309 32.4168 265.758 33.5337 265.402 34.8184H247.816L251.684 15.458H268.567L267.775 19.4209C271.052 16.2503 274.962 14.6651 279.507 14.665ZM343.177 30.5186C341.856 30.3072 340.56 30.2021 339.292 30.2021C336.227 30.2022 333.796 30.8887 331.999 32.2627C331.144 32.9108 330.423 33.7634 329.835 34.8184H311.257L315.115 15.458H331.999L331.127 19.8965C334.668 16.4086 339.742 14.665 346.348 14.665L343.177 30.5186ZM379.1 14.665C383.856 14.6651 388.004 15.5101 391.545 17.2012C395.086 18.8394 397.807 21.1655 399.71 24.1777C401.665 27.1899 402.643 30.7045 402.643 34.7207C402.643 34.7533 402.641 34.7858 402.641 34.8184H384.461C384.331 33.1171 383.759 31.7369 382.746 30.6777C381.636 29.4095 380.077 28.7755 378.069 28.7754C375.744 28.7754 373.841 29.6731 372.361 31.4697C371.609 32.4168 371.058 33.5337 370.702 34.8184H352.494C353.022 31.9678 354.041 29.3183 355.557 26.8721C357.882 23.0674 361.079 20.0817 365.147 17.915C369.27 15.7483 373.921 14.665 379.1 14.665Z" fill="#FE3300"/>
</svg>
