<svg width="403" height="98" viewBox="0 0 403 98" fill="none" xmlns="http://www.w3.org/2000/svg">
<path d="M265.198 41C265.466 42.032 265.927 42.925 266.586 43.6777C267.748 44.8931 269.334 45.5009 271.342 45.501C273.667 45.501 275.544 44.6025 276.971 42.8057C277.42 42.2601 277.799 41.6576 278.112 41H296.639C296.112 43.2529 295.292 45.3877 294.172 47.4033C292.111 51.2083 289.31 54.1946 285.77 56.3613C282.229 58.528 278.397 59.6113 274.275 59.6113C268.462 59.6113 264.34 57.8142 261.909 54.2207L253 98H235L246.521 41H265.198ZM58.623 41C59.2009 43.7364 60.6657 45.1045 63.0176 45.1045C65.0256 45.1045 66.7431 43.9421 68.1699 41.6172C68.2938 41.4153 68.4139 41.2087 68.5322 41H87.8975C87.6987 41.4743 87.4914 41.9442 87.2744 42.4092C84.6849 47.9052 81.0908 52.2393 76.4932 55.4102C71.9485 58.5279 66.8225 60.0869 61.1152 60.0869C56.7818 60.0869 53.003 59.2409 49.7793 57.5498C46.5558 55.8059 44.0458 53.3222 42.249 50.0986C40.8515 47.473 40.0149 44.4401 39.7373 41H58.623ZM120.003 41C120.271 42.032 120.732 42.925 121.391 43.6777C122.553 44.8932 124.139 45.501 126.147 45.501C128.473 45.5009 130.349 44.6024 131.775 42.8057C132.225 42.2601 132.604 41.6577 132.917 41H150.686L150.642 41.2207C150.536 41.9604 150.483 42.4624 150.483 42.7266C150.483 44.946 151.646 46.0556 153.971 46.0557C155.186 46.0557 156.217 45.8446 157.062 45.4219L155.16 58.501C152.518 59.2408 149.876 59.6113 147.233 59.6113C143.64 59.6113 140.706 58.9501 138.434 57.6289C136.162 56.255 134.602 54.3 133.757 51.7637C130.005 56.9953 125.222 59.6113 119.409 59.6113C116.45 59.6113 113.596 58.8188 110.848 57.2334C108.1 55.6481 105.854 53.3489 104.11 50.3369C102.62 47.6353 101.787 44.5227 101.61 41H120.003ZM227.88 41C228.199 41.2364 228.506 41.4934 228.797 41.7754C230.594 43.5193 231.492 45.7919 231.492 48.5928C231.492 51.8691 230.409 54.5377 228.242 56.5986C226.076 58.6067 223.433 59.6113 220.315 59.6113C217.409 59.6113 215.03 58.7391 213.181 56.9951C211.384 55.1983 210.485 52.9257 210.485 50.1777C210.485 46.9014 211.569 44.2591 213.735 42.251C214.231 41.7791 214.756 41.3638 215.305 41H227.88ZM370.498 41C370.766 42.032 371.227 42.925 371.886 43.6777C373.048 44.8931 374.634 45.5009 376.642 45.501C378.967 45.501 380.844 44.6025 382.271 42.8057C382.72 42.2601 383.099 41.6577 383.412 41H401.882C401.303 43.2886 400.397 45.4501 399.155 47.4824C396.83 51.2345 393.605 54.1946 389.483 56.3613C385.414 58.5279 380.79 59.6113 375.611 59.6113C370.855 59.6113 366.707 58.7915 363.166 57.1533C359.625 55.4622 356.877 53.1108 354.922 50.0986C353.251 47.4531 352.315 44.4201 352.111 41H370.498ZM19.9766 58.8184H1.26855L4.81836 41H23.541L19.9766 58.8184ZM185.651 58.8184H167.736L171.287 41H189.243L185.651 58.8184ZM324.39 58.8184H306.475L310.025 41H327.981L324.39 58.8184ZM23.9404 39H5.2168L5.65137 36.8184H24.377L23.9404 39ZM58.3574 36.8184C58.3461 37.1797 58.3408 37.5371 58.3408 37.8906C58.3408 38.2757 58.3521 38.6457 58.3721 39H39.6406C39.6368 38.7903 39.6328 38.5787 39.6328 38.3662C39.6328 37.8463 39.6414 37.3304 39.6562 36.8184H58.3574ZM89.3789 36.8184C89.1628 37.5556 88.9274 38.2829 88.6719 39H69.5352C69.8428 38.3039 70.1256 37.5769 70.3818 36.8184H89.3789ZM119.828 36.8184C119.762 37.4119 119.727 38.0335 119.727 38.6836C119.727 38.7901 119.728 38.8956 119.731 39H101.581C101.594 38.262 101.632 37.5348 101.698 36.8184H119.828ZM151.086 39H133.617C133.783 38.3175 133.894 37.5906 133.95 36.8184H151.522L151.086 39ZM190.222 36.8184C190.017 37.4219 189.84 38.0696 189.694 38.7627L189.646 39H171.686L172.12 36.8184H190.222ZM265.022 36.8184C264.956 37.4119 264.921 38.0335 264.921 38.6836C264.921 38.7901 264.924 38.8956 264.927 39H246.925L247.366 36.8184H265.022ZM297.266 36.8184C297.213 37.5568 297.134 38.2841 297.025 39H278.812C278.977 38.3174 279.089 37.5906 279.146 36.8184H297.266ZM328.96 36.8184C328.755 37.4219 328.579 38.0696 328.433 38.7627L328.385 39H310.424L310.858 36.8184H328.96ZM370.323 36.8184C370.257 37.4119 370.222 38.0335 370.222 38.6836C370.222 38.7901 370.224 38.8956 370.227 39H352.077C352.092 38.2608 352.134 37.5337 352.207 36.8184H370.323ZM402.56 36.8184C402.503 37.5572 402.419 38.2846 402.302 39H384.112C384.278 38.3175 384.389 37.5906 384.445 36.8184H402.56ZM24.7764 34.8184H6.0498L6.61133 32H25.3398L24.7764 34.8184ZM58.8135 32C58.6679 32.963 58.5535 33.9022 58.4756 34.8184H39.7529C39.8182 33.8647 39.9104 32.9253 40.0293 32H58.8135ZM90.4873 32C90.3249 32.9545 90.1336 33.894 89.9121 34.8184H70.9785C71.1086 34.3216 71.23 33.8131 71.3408 33.293C71.4392 32.8573 71.5309 32.4263 71.6162 32H90.4873ZM121.482 32C120.924 32.8264 120.499 33.7649 120.207 34.8184H101.956C102.115 33.8583 102.324 32.9189 102.584 32H121.482ZM151.922 34.8184H133.966C133.884 33.7529 133.629 32.8137 133.201 32H152.485L151.922 34.8184ZM193.627 32C193.502 32.0849 193.38 32.1717 193.261 32.2627C192.405 32.9108 191.685 33.7634 191.097 34.8184H172.519L173.08 32H193.627ZM266.677 32C266.119 32.8263 265.694 33.7651 265.402 34.8184H247.771L248.34 32H266.677ZM297.206 32C297.296 32.8782 297.343 33.7853 297.343 34.7207C297.343 34.7533 297.342 34.7858 297.342 34.8184H279.161C279.08 33.7527 278.823 32.8137 278.396 32H297.206ZM332.365 32C332.241 32.0849 332.118 32.1717 331.999 32.2627C331.144 32.9108 330.423 33.7634 329.835 34.8184H311.257L311.818 32H332.365ZM371.977 32C371.419 32.8263 370.994 33.7651 370.702 34.8184H352.494C352.672 33.8559 352.905 32.9163 353.195 32H371.977ZM402.481 32C402.587 32.8797 402.643 33.7867 402.643 34.7207C402.643 34.7533 402.641 34.7858 402.641 34.8184H384.461C384.379 33.7529 384.124 32.8136 383.696 32H402.481ZM25.7402 30H7.00977L9.5127 17.4395H0L2.85449 3.3291H31.0742L25.7402 30ZM69.6768 2.06055C74.0099 2.0606 77.7882 2.93296 81.0117 4.67676C84.2354 6.36785 86.7199 8.85144 88.4639 12.1279C90.2607 15.3516 91.1582 19.2364 91.1582 23.7812C91.1582 25.9181 91.0328 27.991 90.7822 30H71.9736C72.2914 27.9721 72.4512 26.0578 72.4512 24.2568C72.4512 19.4478 70.8914 17.043 67.7734 17.043C65.7655 17.0431 64.0479 18.2062 62.6211 20.5312C61.1943 22.8564 60.1109 25.6573 59.3711 28.9336C59.2947 29.2919 59.2241 29.6476 59.1562 30H40.332C40.9644 26.3779 42.0258 22.9835 43.5176 19.8174C46.107 14.2686 49.674 9.93531 54.2188 6.81738C58.8164 3.64658 63.9693 2.06055 69.6768 2.06055ZM152.886 30H131.538C130.505 29.1842 129.185 28.7754 127.574 28.7754C126.008 28.7754 124.634 29.1845 123.451 30H103.241C103.644 28.9279 104.117 27.8843 104.665 26.8721C106.779 23.0674 109.606 20.0817 113.146 17.915C116.687 15.7484 120.519 14.6651 124.641 14.665C130.718 14.665 134.946 16.5935 137.324 20.4512L140.971 0H158.886L152.886 30ZM204.542 30H173.479L176.377 15.458H193.261L192.389 19.8965C195.929 16.4086 201.004 14.665 207.609 14.665L204.542 30ZM279.507 14.665C282.466 14.665 285.32 15.4576 288.068 17.043C290.816 18.6283 293.036 20.9536 294.727 24.0186C295.766 25.8148 296.493 27.8092 296.913 30H276.733C275.701 29.184 274.379 28.7754 272.769 28.7754C271.202 28.7755 269.828 29.1843 268.646 30H248.744L251.684 15.458H268.567L267.775 19.4209C271.052 16.2503 274.962 14.6651 279.507 14.665ZM343.28 30H312.217L315.115 15.458H331.999L331.127 19.8965C334.668 16.4086 339.742 14.665 346.348 14.665L343.28 30ZM379.1 14.665C383.856 14.6651 388.004 15.5101 391.545 17.2012C395.086 18.8394 397.807 21.1655 399.71 24.1777C400.857 25.9454 401.665 27.8866 402.139 30H382.033C381.001 29.1841 379.68 28.7755 378.069 28.7754C376.503 28.7754 375.129 29.1845 373.946 30H353.937C354.393 28.9235 354.932 27.8799 355.557 26.8721C357.882 23.0674 361.079 20.0817 365.147 17.915C369.27 15.7483 373.921 14.665 379.1 14.665Z" fill="#FE3300"/>
</svg>
